<svg width="148" height="34" viewBox="0 0 148 34" fill="none" xmlns="http://www.w3.org/2000/svg">
<rect width="146.314" height="32.6821" transform="translate(0.842896 0.658936)" fill="black"/>
<path d="M21.2771 21.5588C24.79 19.6299 27.4532 18.1602 27.6827 18.046C28.4171 17.6554 29.1754 16.6219 27.6827 15.819C27.2008 15.5666 24.6061 14.1425 21.2771 12.3062L16.6622 16.9667L21.2771 21.5588Z" fill="#FFD900"/>
<path d="M16.6624 16.9666L1.96802 31.7763C2.31291 31.822 2.70234 31.7306 3.16143 31.4782C4.1253 30.9506 14.343 25.3707 21.2773 21.5598L16.6624 16.9666Z" fill="#F43249"/>
<path d="M16.6624 16.9667L21.2773 12.329C21.2773 12.329 4.19497 3.00665 3.16144 2.4562C2.77201 2.22551 2.33576 2.15699 1.94519 2.22551L16.6624 16.9667Z" fill="#00EE76"/>
<path d="M16.6622 16.967L1.94501 2.22583C1.34773 2.36401 0.842957 2.89163 0.842957 3.97084C0.842957 5.69301 0.842957 28.6077 0.842957 30.0318C0.842957 31.0196 1.23353 31.7311 1.96785 31.7996L16.6622 16.967Z" fill="#00D3FF"/>
<path d="M45.1427 4.47567C45.1427 5.27567 44.9054 5.913 44.4307 6.38767C43.8974 6.953 43.1961 7.23567 42.3267 7.23567C41.4947 7.23567 40.7907 6.94767 40.2147 6.37167C39.6387 5.79567 39.3507 5.08633 39.3507 4.24367C39.3507 3.401 39.6387 2.69167 40.2147 2.11567C40.7907 1.53967 41.4947 1.25167 42.3267 1.25167C42.7481 1.25167 43.1454 1.32633 43.5187 1.47567C43.8921 1.625 44.1987 1.83567 44.4387 2.10767L43.9107 2.63567C43.7347 2.42233 43.5054 2.257 43.2227 2.13967C42.9454 2.017 42.6467 1.95567 42.3267 1.95567C41.7027 1.95567 41.1747 2.17167 40.7427 2.60367C40.3161 3.041 40.1027 3.58767 40.1027 4.24367C40.1027 4.89967 40.3161 5.44633 40.7427 5.88367C41.1747 6.31567 41.7027 6.53167 42.3267 6.53167C42.8974 6.53167 43.3721 6.37167 43.7507 6.05167C44.1294 5.73167 44.3481 5.29167 44.4067 4.73167H42.3267V4.04367H45.1027C45.1294 4.193 45.1427 4.337 45.1427 4.47567ZM49.509 1.37967V2.08367H46.901V3.89967H49.253V4.58767H46.901V6.40367H49.509V7.10767H46.165V1.37967H49.509ZM52.5809 2.08367V7.10767H51.8449V2.08367H50.2449V1.37967H54.1809V2.08367H52.5809ZM57.6991 7.10767H56.9631V1.37967H57.6991V7.10767ZM59.7177 7.10767H58.9817V1.37967H59.8777L62.6617 5.83567H62.6937L62.6617 4.73167V1.37967H63.3977V7.10767H62.6297L59.7177 2.43567H59.6857L59.7177 3.53967V7.10767ZM72.0176 4.24367C72.0176 5.09167 71.7349 5.801 71.1696 6.37167C70.5989 6.94767 69.9002 7.23567 69.0736 7.23567C68.2416 7.23567 67.5429 6.94767 66.9776 6.37167C66.4122 5.801 66.1296 5.09167 66.1296 4.24367C66.1296 3.39567 66.4122 2.68633 66.9776 2.11567C67.5429 1.53967 68.2416 1.25167 69.0736 1.25167C69.9056 1.25167 70.6042 1.54233 71.1696 2.12367C71.7349 2.69433 72.0176 3.401 72.0176 4.24367ZM66.8816 4.24367C66.8816 4.905 67.0896 5.45167 67.5056 5.88367C67.9269 6.31567 68.4496 6.53167 69.0736 6.53167C69.6976 6.53167 70.2176 6.31567 70.6336 5.88367C71.0549 5.457 71.2656 4.91033 71.2656 4.24367C71.2656 3.577 71.0549 3.03033 70.6336 2.60367C70.2176 2.17167 69.6976 1.95567 69.0736 1.95567C68.4496 1.95567 67.9269 2.17167 67.5056 2.60367C67.0896 3.03567 66.8816 3.58233 66.8816 4.24367ZM73.7501 7.10767H73.0141V1.37967H73.9101L76.6941 5.83567H76.7261L76.6941 4.73167V1.37967H77.4301V7.10767H76.6621L73.7501 2.43567H73.7181L73.7501 3.53967V7.10767Z" fill="white"/>
<path d="M69.5696 16.7983C66.9292 16.7983 64.7479 18.8414 64.7479 21.6428C64.7479 24.4213 66.9064 26.4872 69.5696 26.4872C72.2328 26.4872 74.3912 24.4442 74.3912 21.6428C74.3912 18.8414 72.2328 16.7983 69.5696 16.7983ZM69.5696 24.5595C68.1226 24.5595 66.8607 23.3421 66.8607 21.6211C66.8607 19.8761 68.1238 18.6827 69.5696 18.6827C71.0154 18.6827 72.2784 19.8761 72.2784 21.6211C72.2784 23.3421 71.0154 24.5595 69.5696 24.5595ZM59.0767 16.7983C56.4135 16.7983 54.2551 18.8414 54.2551 21.6428C54.2551 24.4213 56.4135 26.4872 59.0767 26.4872C61.7399 26.4872 63.8983 24.4442 63.8983 21.6428C63.8983 18.8414 61.7399 16.7983 59.0767 16.7983ZM59.0767 24.5595C57.6297 24.5595 56.3678 23.3421 56.3678 21.6211C56.3678 19.8761 57.6309 18.6827 59.0767 18.6827C60.5236 18.6827 61.7855 19.8761 61.7855 21.6211C61.7855 23.3421 60.5453 24.5595 59.0767 24.5595ZM46.6092 18.291V20.334H51.4765C51.3383 21.4818 50.9489 22.3314 50.3745 22.9059C49.663 23.6173 48.5609 24.3985 46.6092 24.3985C43.6011 24.3985 41.2828 21.9648 41.2828 18.9568C41.2828 15.9487 43.6023 13.4693 46.6092 13.4693C48.2389 13.4693 49.4106 14.1123 50.2831 14.9391L51.7289 13.4922C50.5115 12.3216 48.8818 11.4263 46.6092 11.4263C42.4991 11.4263 39.0547 14.8009 39.0547 18.9111C39.0547 23.0212 42.4991 26.3959 46.6092 26.3959C48.8362 26.3959 50.4898 25.6616 51.8214 24.2831C53.1758 22.9287 53.5893 21.0227 53.5893 19.4844C53.5893 19.0024 53.5436 18.5662 53.4739 18.1985L46.6092 18.291ZM97.6267 19.8749C97.2362 18.7957 95.9971 16.7983 93.5166 16.7983C91.0361 16.7983 88.9931 18.7501 88.9931 21.6428C88.9931 24.3517 91.0361 26.4872 93.7462 26.4872C95.9503 26.4872 97.2133 25.1328 97.7409 24.3517L96.1113 23.2496C95.5597 24.0536 94.8254 24.5812 93.7462 24.5812C92.6669 24.5812 91.9098 24.0993 91.4267 23.1114L97.8323 20.4254L97.6267 19.8749ZM91.1058 21.5057C91.0601 19.6454 92.5527 18.6815 93.608 18.6815C94.4576 18.6815 95.1463 19.0949 95.3987 19.7151L91.1058 21.5057ZM85.8936 26.1663H88.0064V11.9767H85.8936V26.1663ZM82.4504 17.8775H82.3819C81.9 17.3031 81.0046 16.7983 79.8557 16.7983C77.4449 16.7983 75.2637 18.9339 75.2637 21.6428C75.2637 24.3517 77.4678 26.4644 79.8557 26.4644C81.0035 26.4644 81.8988 25.9596 82.3819 25.3624H82.4504V26.051C82.4504 27.9113 81.4626 28.8981 79.8786 28.8981C78.5927 28.8981 77.7887 27.957 77.4678 27.1759L75.6314 27.957C76.159 29.2429 77.5603 30.8269 79.8786 30.8269C82.3579 30.8269 84.4478 29.3571 84.4478 25.7986V17.0964H82.4504V17.8775ZM80.0396 24.5595C78.5927 24.5595 77.3764 23.3421 77.3764 21.6439C77.3764 19.9457 78.5938 18.7055 80.0396 18.7055C81.4637 18.7055 82.6114 19.9457 82.6114 21.6439C82.6103 23.3193 81.4626 24.5595 80.0396 24.5595ZM107.477 11.9767H102.426V26.1663H104.538V20.7931H107.477C109.819 20.7931 112.114 19.0938 112.114 16.3849C112.114 13.6761 109.819 11.9767 107.477 11.9767ZM107.545 18.8197H104.56V13.9513H107.545C109.106 13.9513 110.025 15.26 110.025 16.3849C110.003 17.487 109.107 18.8197 107.545 18.8197ZM120.541 16.7755C119.026 16.7755 117.442 17.4413 116.799 18.9568L118.659 19.7379C119.073 18.9568 119.807 18.7044 120.588 18.7044C121.69 18.7044 122.792 19.3702 122.815 20.5407V20.6789C122.425 20.4494 121.622 20.1273 120.611 20.1273C118.591 20.1273 116.547 21.2522 116.547 23.3193C116.547 25.2253 118.2 26.4416 120.037 26.4416C121.461 26.4416 122.241 25.7986 122.723 25.0414H122.791V26.1435H124.834V20.7018C124.811 18.1996 122.952 16.7755 120.541 16.7755ZM120.289 24.5367C119.6 24.5367 118.635 24.1918 118.635 23.3433C118.635 22.2412 119.829 21.8278 120.862 21.8278C121.78 21.8278 122.217 22.0345 122.791 22.3097C122.63 23.6185 121.505 24.5367 120.289 24.5367ZM132.205 17.0975L129.794 23.2279H129.726L127.223 17.0975H124.951L128.716 25.6844L126.58 30.4832H128.785L134.547 17.0975H132.205ZM113.286 26.1663H115.399V11.9767H113.286V26.1663Z" fill="#EDEDED"/>
</svg>
