<svg width="32" height="31" viewBox="0 0 32 31" fill="none" xmlns="http://www.w3.org/2000/svg">
<path d="M13.4743 1.40403C14.9952 0.820729 16.6791 0.820729 18.2 1.40403L29.0863 5.57778C29.707 5.81605 30.2406 6.23622 30.617 6.78291C30.9934 7.32961 31.1948 7.97717 31.1947 8.64027V23.1347C31.1948 23.7978 30.9934 24.4453 30.617 24.992C30.2406 25.5387 29.707 25.9589 29.0863 26.1971L18.2 30.3731C16.6791 30.9564 14.9952 30.9564 13.4743 30.3731L2.59021 26.1971C1.96917 25.9592 1.43504 25.5392 1.05825 24.9925C0.68147 24.4458 0.479733 23.798 0.479645 23.1347V8.64027C0.479733 7.97692 0.68147 7.32917 1.05825 6.78244C1.43504 6.23572 1.96917 5.8157 2.59021 5.57778L13.4743 1.40403V1.40403ZM17.4124 3.44496C16.3985 3.0561 15.2759 3.0561 14.2619 3.44496L11.2255 4.6109L23.4896 9.23965L27.7634 7.41527L17.4124 3.44277V3.44496ZM29.0008 9.26371L16.9341 14.424V28.4853C17.0965 28.4437 17.2545 28.3934 17.4124 28.3321L28.2987 24.1584C28.5056 24.0788 28.6834 23.9386 28.8087 23.7562C28.9341 23.5739 29.001 23.3579 29.0008 23.1368V9.26809V9.26371ZM14.7402 28.4831V14.424L2.67358 9.2659V23.1347C2.67335 23.3557 2.74031 23.5717 2.86564 23.754C2.99097 23.9364 3.16878 24.0766 3.37564 24.1562L14.2619 28.33C14.4199 28.3912 14.5779 28.4415 14.7402 28.4831V28.4831ZM3.91096 7.41527L15.8372 12.5121L20.5849 10.4821L8.15183 5.78778L3.91096 7.41527Z" fill="#D8191E"/>
</svg>
