<svg width="27" height="35" viewBox="0 0 27 35" fill="none" xmlns="http://www.w3.org/2000/svg">
<path d="M26.5556 17.1111C24.8056 15.2639 22.4722 14 20.0417 13.5139C18.9722 13.2222 17.9028 13.0278 16.8333 12.9306C19.5556 9.72224 19.0694 4.86113 15.8611 2.13891C12.6528 -0.583314 7.79167 -0.097203 5.06944 3.11113C2.34722 6.31946 2.83333 11.1806 6.04167 13.9028C6.625 14.3889 7.20833 14.7778 7.79167 14.9722V17.1111L6.23611 15.6528C4.875 14.2917 2.63889 14.2917 1.18056 15.6528C-0.180556 17.0139 -0.277778 19.1528 1.08333 20.5139L5.55556 25.7639C5.75 27.125 6.23611 28.3889 6.91667 29.5556C7.40278 30.4306 8.08333 31.3056 8.76389 31.9861V33.8334C8.76389 34.4167 9.15278 34.8056 9.73611 34.8056H22.9583C23.4444 34.8056 23.9306 34.3195 23.9306 33.8334V31.3056C25.7778 29.0695 26.75 26.25 26.75 23.4306V17.7917C26.8472 17.4028 26.75 17.2084 26.5556 17.1111V17.1111ZM5.16667 7.97224C5.16667 4.76391 7.79167 2.23613 11 2.33335C14.2083 2.33335 16.7361 4.95835 16.6389 8.16669C16.6389 9.91669 15.8611 11.4722 14.5 12.5417V7.68058C14.4504 6.83802 14.0803 6.04637 13.4657 5.46791C12.8511 4.88945 12.0385 4.568 11.1944 4.56946C9.44445 4.47224 7.88889 5.93058 7.88889 7.68058V12.7361C6.23611 11.7639 5.26389 9.91669 5.16667 7.97224ZM24.9028 23.3334C25 25.8611 24.125 28.2917 22.4722 30.2361C22.2778 30.4306 22.0833 30.625 22.0833 30.9167V32.9584H10.8056V31.5972C10.8056 31.3056 10.6111 31.0139 10.4167 30.8195C9.73611 30.2361 9.15278 29.5556 8.66667 28.6806C8.08333 27.7084 7.69444 26.5417 7.5 25.375C7.5 25.1806 7.40278 24.9861 7.30556 24.7917L2.63889 19.25C2.34722 18.9584 2.15278 18.5695 2.15278 18.0834C2.15278 17.6945 2.34722 17.2084 2.63889 16.9167C3.31944 16.3334 4.29167 16.3334 4.97222 16.9167L7.79167 19.7361V22.6528L9.63889 21.6806V7.68058C9.73611 7.00002 10.3194 6.41669 11.0972 6.51391C11.7778 6.51391 12.4583 7.00002 12.4583 7.68058V18.8611L14.4028 19.25V14.7778C14.5 14.6806 14.5972 14.6806 14.6944 14.5834C15.375 14.5834 16.0556 14.6806 16.7361 14.7778V19.7361L18.2917 20.0278V14.9722L19.4583 15.2639C19.9444 15.3611 20.4306 15.5556 20.9167 15.75V20.6111L22.4722 20.9028V16.4306C23.3472 16.8195 24.125 17.4028 24.8056 18.0834L24.9028 23.3334V23.3334Z" fill="#D8191E"/>
</svg>
