<svg width="78" height="15" viewBox="0 0 78 15" fill="none" xmlns="http://www.w3.org/2000/svg">
<path d="M7.046 7.574C7.718 7.694 8.288 8.048 8.756 8.636C9.224 9.224 9.458 9.89 9.458 10.634C9.458 11.27 9.29 11.846 8.954 12.362C8.63 12.866 8.156 13.268 7.532 13.568C6.908 13.856 6.182 14 5.354 14H0.35V1.49H5.12C5.972 1.49 6.704 1.634 7.316 1.922C7.928 2.21 8.39 2.6 8.702 3.092C9.014 3.572 9.17 4.112 9.17 4.712C9.17 5.432 8.978 6.032 8.594 6.512C8.21 6.992 7.694 7.346 7.046 7.574ZM2.402 6.746H4.94C5.612 6.746 6.134 6.596 6.506 6.296C6.89 5.984 7.082 5.54 7.082 4.964C7.082 4.4 6.89 3.962 6.506 3.65C6.134 3.326 5.612 3.164 4.94 3.164H2.402V6.746ZM5.174 12.326C5.87 12.326 6.416 12.158 6.812 11.822C7.208 11.486 7.406 11.018 7.406 10.418C7.406 9.806 7.196 9.32 6.776 8.96C6.356 8.6 5.798 8.42 5.102 8.42H2.402V12.326H5.174ZM21.0659 8.798C21.0659 9.17 21.0419 9.506 20.9939 9.806H13.4159C13.4759 10.598 13.7699 11.234 14.2979 11.714C14.8259 12.194 15.4739 12.434 16.2419 12.434C17.3459 12.434 18.1259 11.972 18.5819 11.048H20.7959C20.4959 11.96 19.9499 12.71 19.1579 13.298C18.3779 13.874 17.4059 14.162 16.2419 14.162C15.2939 14.162 14.4419 13.952 13.6859 13.532C12.9419 13.1 12.3539 12.5 11.9219 11.732C11.5019 10.952 11.2919 10.052 11.2919 9.032C11.2919 8.012 11.4959 7.118 11.9039 6.35C12.3239 5.57 12.9059 4.97 13.6499 4.55C14.4059 4.13 15.2699 3.92 16.2419 3.92C17.1779 3.92 18.0119 4.124 18.7439 4.532C19.4759 4.94 20.0459 5.516 20.4539 6.26C20.8619 6.992 21.0659 7.838 21.0659 8.798ZM18.9239 8.15C18.9119 7.394 18.6419 6.788 18.1139 6.332C17.5859 5.876 16.9319 5.648 16.1519 5.648C15.4439 5.648 14.8379 5.876 14.3339 6.332C13.8299 6.776 13.5299 7.382 13.4339 8.15H18.9239ZM25.4253 5.522C25.7253 5.018 26.1213 4.628 26.6133 4.352C27.1173 4.064 27.7113 3.92 28.3953 3.92V6.044H27.8733C27.0693 6.044 26.4573 6.248 26.0373 6.656C25.6293 7.064 25.4253 7.772 25.4253 8.78V14H23.3733V4.082H25.4253V5.522ZM29.8855 8.996C29.8855 8 30.0895 7.118 30.4975 6.35C30.9175 5.582 31.4815 4.988 32.1895 4.568C32.9095 4.136 33.7015 3.92 34.5655 3.92C35.3455 3.92 36.0235 4.076 36.5995 4.388C37.1875 4.688 37.6555 5.066 38.0035 5.522V4.082H40.0735V14H38.0035V12.524C37.6555 12.992 37.1815 13.382 36.5815 13.694C35.9815 14.006 35.2975 14.162 34.5295 14.162C33.6775 14.162 32.8975 13.946 32.1895 13.514C31.4815 13.07 30.9175 12.458 30.4975 11.678C30.0895 10.886 29.8855 9.992 29.8855 8.996ZM38.0035 9.032C38.0035 8.348 37.8595 7.754 37.5715 7.25C37.2955 6.746 36.9295 6.362 36.4735 6.098C36.0175 5.834 35.5255 5.702 34.9975 5.702C34.4695 5.702 33.9775 5.834 33.5215 6.098C33.0655 6.35 32.6935 6.728 32.4055 7.232C32.1295 7.724 31.9915 8.312 31.9915 8.996C31.9915 9.68 32.1295 10.28 32.4055 10.796C32.6935 11.312 33.0655 11.708 33.5215 11.984C33.9895 12.248 34.4815 12.38 34.9975 12.38C35.5255 12.38 36.0175 12.248 36.4735 11.984C36.9295 11.72 37.2955 11.336 37.5715 10.832C37.8595 10.316 38.0035 9.716 38.0035 9.032ZM48.0607 3.92C48.8407 3.92 49.5367 4.082 50.1487 4.406C50.7727 4.73 51.2587 5.21 51.6067 5.846C51.9547 6.482 52.1287 7.25 52.1287 8.15V14H50.0947V8.456C50.0947 7.568 49.8727 6.89 49.4287 6.422C48.9847 5.942 48.3787 5.702 47.6107 5.702C46.8427 5.702 46.2307 5.942 45.7747 6.422C45.3307 6.89 45.1087 7.568 45.1087 8.456V14H43.0567V4.082H45.1087V5.216C45.4447 4.808 45.8707 4.49 46.3867 4.262C46.9147 4.034 47.4727 3.92 48.0607 3.92ZM54.3501 8.996C54.3501 8 54.5541 7.118 54.9621 6.35C55.3821 5.582 55.9461 4.988 56.6541 4.568C57.3741 4.136 58.1721 3.92 59.0481 3.92C59.6961 3.92 60.3321 4.064 60.9561 4.352C61.5921 4.628 62.0961 5 62.4681 5.468V0.68H64.5381V14H62.4681V12.506C62.1321 12.986 61.6641 13.382 61.0641 13.694C60.4761 14.006 59.7981 14.162 59.0301 14.162C58.1661 14.162 57.3741 13.946 56.6541 13.514C55.9461 13.07 55.3821 12.458 54.9621 11.678C54.5541 10.886 54.3501 9.992 54.3501 8.996ZM62.4681 9.032C62.4681 8.348 62.3241 7.754 62.0361 7.25C61.7601 6.746 61.3941 6.362 60.9381 6.098C60.4821 5.834 59.9901 5.702 59.4621 5.702C58.9341 5.702 58.4421 5.834 57.9861 6.098C57.5301 6.35 57.1581 6.728 56.8701 7.232C56.5941 7.724 56.4561 8.312 56.4561 8.996C56.4561 9.68 56.5941 10.28 56.8701 10.796C57.1581 11.312 57.5301 11.708 57.9861 11.984C58.4541 12.248 58.9461 12.38 59.4621 12.38C59.9901 12.38 60.4821 12.248 60.9381 11.984C61.3941 11.72 61.7601 11.336 62.0361 10.832C62.3241 10.316 62.4681 9.716 62.4681 9.032ZM66.8374 8.996C66.8374 8 67.0414 7.118 67.4494 6.35C67.8694 5.582 68.4334 4.988 69.1414 4.568C69.8614 4.136 70.6534 3.92 71.5174 3.92C72.2974 3.92 72.9754 4.076 73.5514 4.388C74.1394 4.688 74.6074 5.066 74.9554 5.522V4.082H77.0254V14H74.9554V12.524C74.6074 12.992 74.1334 13.382 73.5334 13.694C72.9334 14.006 72.2494 14.162 71.4814 14.162C70.6294 14.162 69.8494 13.946 69.1414 13.514C68.4334 13.07 67.8694 12.458 67.4494 11.678C67.0414 10.886 66.8374 9.992 66.8374 8.996ZM74.9554 9.032C74.9554 8.348 74.8114 7.754 74.5234 7.25C74.2474 6.746 73.8814 6.362 73.4254 6.098C72.9694 5.834 72.4774 5.702 71.9494 5.702C71.4214 5.702 70.9294 5.834 70.4734 6.098C70.0174 6.35 69.6454 6.728 69.3574 7.232C69.0814 7.724 68.9434 8.312 68.9434 8.996C68.9434 9.68 69.0814 10.28 69.3574 10.796C69.6454 11.312 70.0174 11.708 70.4734 11.984C70.9414 12.248 71.4334 12.38 71.9494 12.38C72.4774 12.38 72.9694 12.248 73.4254 11.984C73.8814 11.72 74.2474 11.336 74.5234 10.832C74.8114 10.316 74.9554 9.716 74.9554 9.032Z" fill="#F05830"/>
</svg>
