<svg width="111" height="19" viewBox="0 0 111 19" fill="none" xmlns="http://www.w3.org/2000/svg">
<path d="M7.244 14L2.402 8.402V14H0.35V1.49H2.402V7.196L7.262 1.49H9.836L4.4 7.754L9.926 14H7.244ZM21.1186 8.798C21.1186 9.17 21.0946 9.506 21.0466 9.806H13.4686C13.5286 10.598 13.8226 11.234 14.3506 11.714C14.8786 12.194 15.5266 12.434 16.2946 12.434C17.3986 12.434 18.1786 11.972 18.6346 11.048H20.8486C20.5486 11.96 20.0026 12.71 19.2106 13.298C18.4306 13.874 17.4586 14.162 16.2946 14.162C15.3466 14.162 14.4946 13.952 13.7386 13.532C12.9946 13.1 12.4066 12.5 11.9746 11.732C11.5546 10.952 11.3446 10.052 11.3446 9.032C11.3446 8.012 11.5486 7.118 11.9566 6.35C12.3766 5.57 12.9586 4.97 13.7026 4.55C14.4586 4.13 15.3226 3.92 16.2946 3.92C17.2306 3.92 18.0646 4.124 18.7966 4.532C19.5286 4.94 20.0986 5.516 20.5066 6.26C20.9146 6.992 21.1186 7.838 21.1186 8.798ZM18.9766 8.15C18.9646 7.394 18.6946 6.788 18.1666 6.332C17.6386 5.876 16.9846 5.648 16.2046 5.648C15.4966 5.648 14.8906 5.876 14.3866 6.332C13.8826 6.776 13.5826 7.382 13.4866 8.15H18.9766ZM32.408 4.082V14H30.356V12.83C30.032 13.238 29.606 13.562 29.078 13.802C28.562 14.03 28.01 14.144 27.422 14.144C26.642 14.144 25.94 13.982 25.316 13.658C24.704 13.334 24.218 12.854 23.858 12.218C23.51 11.582 23.336 10.814 23.336 9.914V4.082H25.37V9.608C25.37 10.496 25.592 11.18 26.036 11.66C26.48 12.128 27.086 12.362 27.854 12.362C28.622 12.362 29.228 12.128 29.672 11.66C30.128 11.18 30.356 10.496 30.356 9.608V4.082H32.408ZM40.4075 3.92C41.1875 3.92 41.8835 4.082 42.4955 4.406C43.1195 4.73 43.6055 5.21 43.9535 5.846C44.3015 6.482 44.4755 7.25 44.4755 8.15V14H42.4415V8.456C42.4415 7.568 42.2195 6.89 41.7755 6.422C41.3315 5.942 40.7255 5.702 39.9575 5.702C39.1895 5.702 38.5775 5.942 38.1215 6.422C37.6775 6.89 37.4555 7.568 37.4555 8.456V14H35.4035V4.082H37.4555V5.216C37.7915 4.808 38.2175 4.49 38.7335 4.262C39.2615 4.034 39.8195 3.92 40.4075 3.92ZM51.3769 3.92C52.1449 3.92 52.8229 4.076 53.4109 4.388C54.0109 4.688 54.4789 5.066 54.8149 5.522V4.082H56.8849V14.162C56.8849 15.074 56.6929 15.884 56.3089 16.592C55.9249 17.312 55.3669 17.876 54.6349 18.284C53.9149 18.692 53.0509 18.896 52.0429 18.896C50.6989 18.896 49.5829 18.578 48.6949 17.942C47.8069 17.318 47.3029 16.466 47.1829 15.386H49.2169C49.3729 15.902 49.7029 16.316 50.2069 16.628C50.7229 16.952 51.3349 17.114 52.0429 17.114C52.8709 17.114 53.5369 16.862 54.0409 16.358C54.5569 15.854 54.8149 15.122 54.8149 14.162V12.506C54.4669 12.974 53.9929 13.37 53.3929 13.694C52.8049 14.006 52.1329 14.162 51.3769 14.162C50.5129 14.162 49.7209 13.946 49.0009 13.514C48.2929 13.07 47.7289 12.458 47.3089 11.678C46.9009 10.886 46.6969 9.992 46.6969 8.996C46.6969 8 46.9009 7.118 47.3089 6.35C47.7289 5.582 48.2929 4.988 49.0009 4.568C49.7209 4.136 50.5129 3.92 51.3769 3.92ZM54.8149 9.032C54.8149 8.348 54.6709 7.754 54.3829 7.25C54.1069 6.746 53.7409 6.362 53.2849 6.098C52.8289 5.834 52.3369 5.702 51.8089 5.702C51.2809 5.702 50.7889 5.834 50.3329 6.098C49.8769 6.35 49.5049 6.728 49.2169 7.232C48.9409 7.724 48.8029 8.312 48.8029 8.996C48.8029 9.68 48.9409 10.28 49.2169 10.796C49.5049 11.312 49.8769 11.708 50.3329 11.984C50.8009 12.248 51.2929 12.38 51.8089 12.38C52.3369 12.38 52.8289 12.248 53.2849 11.984C53.7409 11.72 54.1069 11.336 54.3829 10.832C54.6709 10.316 54.8149 9.716 54.8149 9.032ZM63.8641 3.92C64.6321 3.92 65.3101 4.076 65.8981 4.388C66.4981 4.688 66.9661 5.066 67.3021 5.522V4.082H69.3721V14.162C69.3721 15.074 69.1801 15.884 68.7961 16.592C68.4121 17.312 67.8541 17.876 67.1221 18.284C66.4021 18.692 65.5381 18.896 64.5301 18.896C63.1861 18.896 62.0701 18.578 61.1821 17.942C60.2941 17.318 59.7901 16.466 59.6701 15.386H61.7041C61.8601 15.902 62.1901 16.316 62.6941 16.628C63.2101 16.952 63.8221 17.114 64.5301 17.114C65.3581 17.114 66.0241 16.862 66.5281 16.358C67.0441 15.854 67.3021 15.122 67.3021 14.162V12.506C66.9541 12.974 66.4801 13.37 65.8801 13.694C65.2921 14.006 64.6201 14.162 63.8641 14.162C63.0001 14.162 62.2081 13.946 61.4881 13.514C60.7801 13.07 60.2161 12.458 59.7961 11.678C59.3881 10.886 59.1841 9.992 59.1841 8.996C59.1841 8 59.3881 7.118 59.7961 6.35C60.2161 5.582 60.7801 4.988 61.4881 4.568C62.2081 4.136 63.0001 3.92 63.8641 3.92ZM67.3021 9.032C67.3021 8.348 67.1581 7.754 66.8701 7.25C66.5941 6.746 66.2281 6.362 65.7721 6.098C65.3161 5.834 64.8241 5.702 64.2961 5.702C63.7681 5.702 63.2761 5.834 62.8201 6.098C62.3641 6.35 61.9921 6.728 61.7041 7.232C61.4281 7.724 61.2901 8.312 61.2901 8.996C61.2901 9.68 61.4281 10.28 61.7041 10.796C61.9921 11.312 62.3641 11.708 62.8201 11.984C63.2881 12.248 63.7801 12.38 64.2961 12.38C64.8241 12.38 65.3161 12.248 65.7721 11.984C66.2281 11.72 66.5941 11.336 66.8701 10.832C67.1581 10.316 67.3021 9.716 67.3021 9.032ZM81.3373 4.082V14H79.2853V12.83C78.9613 13.238 78.5353 13.562 78.0073 13.802C77.4913 14.03 76.9393 14.144 76.3513 14.144C75.5713 14.144 74.8693 13.982 74.2453 13.658C73.6333 13.334 73.1473 12.854 72.7873 12.218C72.4393 11.582 72.2653 10.814 72.2653 9.914V4.082H74.2993V9.608C74.2993 10.496 74.5213 11.18 74.9653 11.66C75.4093 12.128 76.0153 12.362 76.7833 12.362C77.5513 12.362 78.1573 12.128 78.6013 11.66C79.0573 11.18 79.2853 10.496 79.2853 9.608V4.082H81.3373ZM86.3848 0.68V14H84.3328V0.68H86.3848ZM88.6829 8.996C88.6829 8 88.8869 7.118 89.2949 6.35C89.7149 5.582 90.2789 4.988 90.9869 4.568C91.7069 4.136 92.4989 3.92 93.3629 3.92C94.1429 3.92 94.8209 4.076 95.3969 4.388C95.9849 4.688 96.4529 5.066 96.8009 5.522V4.082H98.8709V14H96.8009V12.524C96.4529 12.992 95.9789 13.382 95.3789 13.694C94.7789 14.006 94.0949 14.162 93.3269 14.162C92.4749 14.162 91.6949 13.946 90.9869 13.514C90.2789 13.07 89.7149 12.458 89.2949 11.678C88.8869 10.886 88.6829 9.992 88.6829 8.996ZM96.8009 9.032C96.8009 8.348 96.6569 7.754 96.3689 7.25C96.0929 6.746 95.7269 6.362 95.2709 6.098C94.8149 5.834 94.3229 5.702 93.7949 5.702C93.2669 5.702 92.7749 5.834 92.3189 6.098C91.8629 6.35 91.4909 6.728 91.2029 7.232C90.9269 7.724 90.7889 8.312 90.7889 8.996C90.7889 9.68 90.9269 10.28 91.2029 10.796C91.4909 11.312 91.8629 11.708 92.3189 11.984C92.7869 12.248 93.2789 12.38 93.7949 12.38C94.3229 12.38 94.8149 12.248 95.2709 11.984C95.7269 11.72 96.0929 11.336 96.3689 10.832C96.6569 10.316 96.8009 9.716 96.8009 9.032ZM106.858 3.92C107.638 3.92 108.334 4.082 108.946 4.406C109.57 4.73 110.056 5.21 110.404 5.846C110.752 6.482 110.926 7.25 110.926 8.15V14H108.892V8.456C108.892 7.568 108.67 6.89 108.226 6.422C107.782 5.942 107.176 5.702 106.408 5.702C105.64 5.702 105.028 5.942 104.572 6.422C104.128 6.89 103.906 7.568 103.906 8.456V14H101.854V4.082H103.906V5.216C104.242 4.808 104.668 4.49 105.184 4.262C105.712 4.034 106.27 3.92 106.858 3.92Z" fill="#0D0D0D"/>
</svg>
