<svg width="117" height="19" viewBox="0 0 117 19" fill="none" xmlns="http://www.w3.org/2000/svg">
<path d="M7.712 1.49V3.164H2.402V6.854H6.542V8.528H2.402V14H0.35V1.49H7.712ZM10.9457 2.768C10.5737 2.768 10.2617 2.642 10.0097 2.39C9.75767 2.138 9.63167 1.826 9.63167 1.454C9.63167 1.082 9.75767 0.769999 10.0097 0.518C10.2617 0.265999 10.5737 0.139999 10.9457 0.139999C11.3057 0.139999 11.6117 0.265999 11.8637 0.518C12.1157 0.769999 12.2417 1.082 12.2417 1.454C12.2417 1.826 12.1157 2.138 11.8637 2.39C11.6117 2.642 11.3057 2.768 10.9457 2.768ZM11.9537 4.082V14H9.90167V4.082H11.9537ZM17.3298 5.756V11.246C17.3298 11.618 17.4138 11.888 17.5818 12.056C17.7618 12.212 18.0618 12.29 18.4818 12.29H19.7418V14H18.1218C17.1978 14 16.4898 13.784 15.9978 13.352C15.5058 12.92 15.2598 12.218 15.2598 11.246V5.756H14.0898V4.082H15.2598V1.616H17.3298V4.082H19.7418V5.756H17.3298ZM30.903 4.082V14H28.851V12.83C28.527 13.238 28.101 13.562 27.573 13.802C27.057 14.03 26.505 14.144 25.917 14.144C25.137 14.144 24.435 13.982 23.811 13.658C23.199 13.334 22.713 12.854 22.353 12.218C22.005 11.582 21.831 10.814 21.831 9.914V4.082H23.865V9.608C23.865 10.496 24.087 11.18 24.531 11.66C24.975 12.128 25.581 12.362 26.349 12.362C27.117 12.362 27.723 12.128 28.167 11.66C28.623 11.18 28.851 10.496 28.851 9.608V4.082H30.903ZM35.9505 5.522C36.2505 5.018 36.6465 4.628 37.1385 4.352C37.6425 4.064 38.2365 3.92 38.9205 3.92V6.044H38.3985C37.5945 6.044 36.9825 6.248 36.5625 6.656C36.1545 7.064 35.9505 7.772 35.9505 8.78V14H33.8985V4.082H35.9505V5.522ZM53.6005 11.444H48.3625L47.4625 14H45.3205L49.8025 1.472H52.1785L56.6605 14H54.5005L53.6005 11.444ZM53.0245 9.77L50.9905 3.956L48.9385 9.77H53.0245ZM60.9492 5.54C61.2972 5.084 61.7712 4.7 62.3712 4.388C62.9712 4.076 63.6492 3.92 64.4052 3.92C65.2692 3.92 66.0552 4.136 66.7632 4.568C67.4832 4.988 68.0472 5.582 68.4552 6.35C68.8632 7.118 69.0672 8 69.0672 8.996C69.0672 9.992 68.8632 10.886 68.4552 11.678C68.0472 12.458 67.4832 13.07 66.7632 13.514C66.0552 13.946 65.2692 14.162 64.4052 14.162C63.6492 14.162 62.9772 14.012 62.3892 13.712C61.8012 13.4 61.3212 13.016 60.9492 12.56V18.716H58.8972V4.082H60.9492V5.54ZM66.9792 8.996C66.9792 8.312 66.8352 7.724 66.5472 7.232C66.2712 6.728 65.8992 6.35 65.4312 6.098C64.9752 5.834 64.4832 5.702 63.9552 5.702C63.4392 5.702 62.9472 5.834 62.4792 6.098C62.0232 6.362 61.6512 6.746 61.3632 7.25C61.0872 7.754 60.9492 8.348 60.9492 9.032C60.9492 9.716 61.0872 10.316 61.3632 10.832C61.6512 11.336 62.0232 11.72 62.4792 11.984C62.9472 12.248 63.4392 12.38 63.9552 12.38C64.4832 12.38 64.9752 12.248 65.4312 11.984C65.8992 11.708 66.2712 11.312 66.5472 10.796C66.8352 10.28 66.9792 9.68 66.9792 8.996ZM73.4365 0.68V14H71.3845V0.68H73.4365ZM77.4626 2.768C77.0906 2.768 76.7786 2.642 76.5266 2.39C76.2746 2.138 76.1486 1.826 76.1486 1.454C76.1486 1.082 76.2746 0.769999 76.5266 0.518C76.7786 0.265999 77.0906 0.139999 77.4626 0.139999C77.8226 0.139999 78.1286 0.265999 78.3806 0.518C78.6326 0.769999 78.7586 1.082 78.7586 1.454C78.7586 1.826 78.6326 2.138 78.3806 2.39C78.1286 2.642 77.8226 2.768 77.4626 2.768ZM78.4706 4.082V14H76.4186V4.082H78.4706ZM85.3767 9.05L89.9487 14H87.1767L83.5047 9.734V14H81.4527V0.68H83.5047V8.42L87.1047 4.082H89.9487L85.3767 9.05ZM91.0235 8.996C91.0235 8 91.2275 7.118 91.6355 6.35C92.0555 5.582 92.6195 4.988 93.3275 4.568C94.0475 4.136 94.8395 3.92 95.7035 3.92C96.4835 3.92 97.1615 4.076 97.7375 4.388C98.3255 4.688 98.7935 5.066 99.1415 5.522V4.082H101.211V14H99.1415V12.524C98.7935 12.992 98.3195 13.382 97.7195 13.694C97.1195 14.006 96.4355 14.162 95.6675 14.162C94.8155 14.162 94.0355 13.946 93.3275 13.514C92.6195 13.07 92.0555 12.458 91.6355 11.678C91.2275 10.886 91.0235 9.992 91.0235 8.996ZM99.1415 9.032C99.1415 8.348 98.9975 7.754 98.7095 7.25C98.4335 6.746 98.0675 6.362 97.6115 6.098C97.1555 5.834 96.6635 5.702 96.1355 5.702C95.6075 5.702 95.1155 5.834 94.6595 6.098C94.2035 6.35 93.8315 6.728 93.5435 7.232C93.2675 7.724 93.1295 8.312 93.1295 8.996C93.1295 9.68 93.2675 10.28 93.5435 10.796C93.8315 11.312 94.2035 11.708 94.6595 11.984C95.1275 12.248 95.6195 12.38 96.1355 12.38C96.6635 12.38 97.1555 12.248 97.6115 11.984C98.0675 11.72 98.4335 11.336 98.7095 10.832C98.9975 10.316 99.1415 9.716 99.1415 9.032ZM107.795 14.162C107.015 14.162 106.313 14.024 105.689 13.748C105.077 13.46 104.591 13.076 104.231 12.596C103.871 12.104 103.679 11.558 103.655 10.958H105.779C105.815 11.378 106.013 11.732 106.373 12.02C106.745 12.296 107.207 12.434 107.759 12.434C108.335 12.434 108.779 12.326 109.091 12.11C109.415 11.882 109.577 11.594 109.577 11.246C109.577 10.874 109.397 10.598 109.037 10.418C108.689 10.238 108.131 10.04 107.363 9.824C106.619 9.62 106.013 9.422 105.545 9.23C105.077 9.038 104.669 8.744 104.321 8.348C103.985 7.952 103.817 7.43 103.817 6.782C103.817 6.254 103.973 5.774 104.285 5.342C104.597 4.898 105.041 4.55 105.617 4.298C106.205 4.046 106.877 3.92 107.633 3.92C108.761 3.92 109.667 4.208 110.351 4.784C111.047 5.348 111.419 6.122 111.467 7.106H109.415C109.379 6.662 109.199 6.308 108.875 6.044C108.551 5.78 108.113 5.648 107.561 5.648C107.021 5.648 106.607 5.75 106.319 5.954C106.031 6.158 105.887 6.428 105.887 6.764C105.887 7.028 105.983 7.25 106.175 7.43C106.367 7.61 106.601 7.754 106.877 7.862C107.153 7.958 107.561 8.084 108.101 8.24C108.821 8.432 109.409 8.63 109.865 8.834C110.333 9.026 110.735 9.314 111.071 9.698C111.407 10.082 111.581 10.592 111.593 11.228C111.593 11.792 111.437 12.296 111.125 12.74C110.813 13.184 110.369 13.532 109.793 13.784C109.229 14.036 108.563 14.162 107.795 14.162ZM115.142 2.768C114.77 2.768 114.458 2.642 114.206 2.39C113.954 2.138 113.828 1.826 113.828 1.454C113.828 1.082 113.954 0.769999 114.206 0.518C114.458 0.265999 114.77 0.139999 115.142 0.139999C115.502 0.139999 115.808 0.265999 116.06 0.518C116.312 0.769999 116.438 1.082 116.438 1.454C116.438 1.826 116.312 2.138 116.06 2.39C115.808 2.642 115.502 2.768 115.142 2.768ZM116.15 4.082V14H114.098V4.082H116.15Z" fill="#0D0D0D"/>
</svg>
