<svg width="108" height="15" viewBox="0 0 108 15" fill="none" xmlns="http://www.w3.org/2000/svg">
<path d="M9.432 1.49V3.164H6.102V14H4.05V3.164H0.702V1.49H9.432ZM20.8882 8.798C20.8882 9.17 20.8642 9.506 20.8162 9.806H13.2382C13.2982 10.598 13.5922 11.234 14.1202 11.714C14.6482 12.194 15.2962 12.434 16.0642 12.434C17.1682 12.434 17.9482 11.972 18.4042 11.048H20.6182C20.3182 11.96 19.7722 12.71 18.9802 13.298C18.2002 13.874 17.2282 14.162 16.0642 14.162C15.1162 14.162 14.2642 13.952 13.5082 13.532C12.7642 13.1 12.1762 12.5 11.7442 11.732C11.3242 10.952 11.1142 10.052 11.1142 9.032C11.1142 8.012 11.3182 7.118 11.7262 6.35C12.1462 5.57 12.7282 4.97 13.4722 4.55C14.2282 4.13 15.0922 3.92 16.0642 3.92C17.0002 3.92 17.8342 4.124 18.5662 4.532C19.2982 4.94 19.8682 5.516 20.2762 6.26C20.6842 6.992 20.8882 7.838 20.8882 8.798ZM18.7462 8.15C18.7342 7.394 18.4642 6.788 17.9362 6.332C17.4082 5.876 16.7542 5.648 15.9742 5.648C15.2662 5.648 14.6602 5.876 14.1562 6.332C13.6522 6.776 13.3522 7.382 13.2562 8.15H18.7462ZM26.7955 14.162C26.0155 14.162 25.3135 14.024 24.6895 13.748C24.0775 13.46 23.5915 13.076 23.2315 12.596C22.8715 12.104 22.6795 11.558 22.6555 10.958H24.7795C24.8155 11.378 25.0135 11.732 25.3735 12.02C25.7455 12.296 26.2075 12.434 26.7595 12.434C27.3355 12.434 27.7795 12.326 28.0915 12.11C28.4155 11.882 28.5775 11.594 28.5775 11.246C28.5775 10.874 28.3975 10.598 28.0375 10.418C27.6895 10.238 27.1315 10.04 26.3635 9.824C25.6195 9.62 25.0135 9.422 24.5455 9.23C24.0775 9.038 23.6695 8.744 23.3215 8.348C22.9855 7.952 22.8175 7.43 22.8175 6.782C22.8175 6.254 22.9735 5.774 23.2855 5.342C23.5975 4.898 24.0415 4.55 24.6175 4.298C25.2055 4.046 25.8775 3.92 26.6335 3.92C27.7615 3.92 28.6675 4.208 29.3515 4.784C30.0475 5.348 30.4195 6.122 30.4675 7.106H28.4155C28.3795 6.662 28.1995 6.308 27.8755 6.044C27.5515 5.78 27.1135 5.648 26.5615 5.648C26.0215 5.648 25.6075 5.75 25.3195 5.954C25.0315 6.158 24.8875 6.428 24.8875 6.764C24.8875 7.028 24.9835 7.25 25.1755 7.43C25.3675 7.61 25.6015 7.754 25.8775 7.862C26.1535 7.958 26.5615 8.084 27.1015 8.24C27.8215 8.432 28.4095 8.63 28.8655 8.834C29.3335 9.026 29.7355 9.314 30.0715 9.698C30.4075 10.082 30.5815 10.592 30.5935 11.228C30.5935 11.792 30.4375 12.296 30.1255 12.74C29.8135 13.184 29.3695 13.532 28.7935 13.784C28.2295 14.036 27.5635 14.162 26.7955 14.162ZM35.4928 5.756V11.246C35.4928 11.618 35.5768 11.888 35.7448 12.056C35.9248 12.212 36.2248 12.29 36.6448 12.29H37.9048V14H36.2848C35.3608 14 34.6528 13.784 34.1608 13.352C33.6688 12.92 33.4228 12.218 33.4228 11.246V5.756H32.2528V4.082H33.4228V1.616H35.4928V4.082H37.9048V5.756H35.4928ZM41.128 2.768C40.756 2.768 40.444 2.642 40.192 2.39C39.94 2.138 39.814 1.826 39.814 1.454C39.814 1.082 39.94 0.769999 40.192 0.518C40.444 0.265999 40.756 0.139999 41.128 0.139999C41.488 0.139999 41.794 0.265999 42.046 0.518C42.298 0.769999 42.424 1.082 42.424 1.454C42.424 1.826 42.298 2.138 42.046 2.39C41.794 2.642 41.488 2.768 41.128 2.768ZM42.136 4.082V14H40.084V4.082H42.136ZM57.1241 3.92C57.9041 3.92 58.6001 4.082 59.2121 4.406C59.8361 4.73 60.3221 5.21 60.6701 5.846C61.0301 6.482 61.2101 7.25 61.2101 8.15V14H59.1761V8.456C59.1761 7.568 58.9541 6.89 58.5101 6.422C58.0661 5.942 57.4601 5.702 56.6921 5.702C55.9241 5.702 55.3121 5.942 54.8561 6.422C54.4121 6.89 54.1901 7.568 54.1901 8.456V14H52.1561V8.456C52.1561 7.568 51.9341 6.89 51.4901 6.422C51.0461 5.942 50.4401 5.702 49.6721 5.702C48.9041 5.702 48.2921 5.942 47.8361 6.422C47.3921 6.89 47.1701 7.568 47.1701 8.456V14H45.1181V4.082H47.1701V5.216C47.5061 4.808 47.9321 4.49 48.4481 4.262C48.9641 4.034 49.5161 3.92 50.1041 3.92C50.8961 3.92 51.6041 4.088 52.2281 4.424C52.8521 4.76 53.3321 5.246 53.6681 5.882C53.9681 5.282 54.4361 4.808 55.0721 4.46C55.7081 4.1 56.3921 3.92 57.1241 3.92ZM68.4113 14.162C67.4753 14.162 66.6293 13.952 65.8733 13.532C65.1173 13.1 64.5233 12.5 64.0913 11.732C63.6593 10.952 63.4433 10.052 63.4433 9.032C63.4433 8.024 63.6653 7.13 64.1093 6.35C64.5533 5.57 65.1593 4.97 65.9273 4.55C66.6953 4.13 67.5533 3.92 68.5013 3.92C69.4493 3.92 70.3073 4.13 71.0753 4.55C71.8433 4.97 72.4493 5.57 72.8933 6.35C73.3373 7.13 73.5593 8.024 73.5593 9.032C73.5593 10.04 73.3313 10.934 72.8753 11.714C72.4193 12.494 71.7953 13.1 71.0033 13.532C70.2233 13.952 69.3593 14.162 68.4113 14.162ZM68.4113 12.38C68.9393 12.38 69.4313 12.254 69.8873 12.002C70.3553 11.75 70.7333 11.372 71.0213 10.868C71.3093 10.364 71.4533 9.752 71.4533 9.032C71.4533 8.312 71.3153 7.706 71.0393 7.214C70.7633 6.71 70.3973 6.332 69.9413 6.08C69.4853 5.828 68.9933 5.702 68.4653 5.702C67.9373 5.702 67.4453 5.828 66.9893 6.08C66.5453 6.332 66.1913 6.71 65.9273 7.214C65.6633 7.706 65.5313 8.312 65.5313 9.032C65.5313 10.1 65.8013 10.928 66.3413 11.516C66.8933 12.092 67.5833 12.38 68.4113 12.38ZM80.8798 3.92C81.6598 3.92 82.3558 4.082 82.9678 4.406C83.5918 4.73 84.0778 5.21 84.4258 5.846C84.7738 6.482 84.9478 7.25 84.9478 8.15V14H82.9138V8.456C82.9138 7.568 82.6918 6.89 82.2478 6.422C81.8038 5.942 81.1978 5.702 80.4298 5.702C79.6618 5.702 79.0498 5.942 78.5938 6.422C78.1498 6.89 77.9278 7.568 77.9278 8.456V14H75.8758V4.082H77.9278V5.216C78.2638 4.808 78.6898 4.49 79.2058 4.262C79.7338 4.034 80.2918 3.92 80.8798 3.92ZM88.8972 2.768C88.5252 2.768 88.2132 2.642 87.9612 2.39C87.7092 2.138 87.5832 1.826 87.5832 1.454C87.5832 1.082 87.7092 0.769999 87.9612 0.518C88.2132 0.265999 88.5252 0.139999 88.8972 0.139999C89.2572 0.139999 89.5632 0.265999 89.8152 0.518C90.0672 0.769999 90.1932 1.082 90.1932 1.454C90.1932 1.826 90.0672 2.138 89.8152 2.39C89.5632 2.642 89.2572 2.768 88.8972 2.768ZM89.9052 4.082V14H87.8532V4.082H89.9052ZM92.2033 8.996C92.2033 8 92.4073 7.118 92.8153 6.35C93.2353 5.582 93.7993 4.988 94.5073 4.568C95.2273 4.136 96.0193 3.92 96.8833 3.92C97.6633 3.92 98.3413 4.076 98.9173 4.388C99.5053 4.688 99.9733 5.066 100.321 5.522V4.082H102.391V14H100.321V12.524C99.9733 12.992 99.4993 13.382 98.8993 13.694C98.2993 14.006 97.6153 14.162 96.8473 14.162C95.9953 14.162 95.2153 13.946 94.5073 13.514C93.7993 13.07 93.2353 12.458 92.8153 11.678C92.4073 10.886 92.2033 9.992 92.2033 8.996ZM100.321 9.032C100.321 8.348 100.177 7.754 99.8893 7.25C99.6133 6.746 99.2473 6.362 98.7913 6.098C98.3353 5.834 97.8433 5.702 97.3153 5.702C96.7873 5.702 96.2953 5.834 95.8393 6.098C95.3833 6.35 95.0113 6.728 94.7233 7.232C94.4473 7.724 94.3093 8.312 94.3093 8.996C94.3093 9.68 94.4473 10.28 94.7233 10.796C95.0113 11.312 95.3833 11.708 95.8393 11.984C96.3073 12.248 96.7993 12.38 97.3153 12.38C97.8433 12.38 98.3353 12.248 98.7913 11.984C99.2473 11.72 99.6133 11.336 99.8893 10.832C100.177 10.316 100.321 9.716 100.321 9.032ZM107.427 0.68V14H105.375V0.68H107.427Z" fill="#0D0D0D"/>
</svg>
